<svg width="310" height="270" viewBox="0 0 82.021 71.437" xmlns:xlink="http://www.w3.org/1999/xlink" xmlns="http://www.w3.org/2000/svg"><path style="fill:#ed1c24;fill-opacity:1;stroke:#fec953;stroke-width:.79375;stroke-linecap:butt;stroke-linejoin:miter;stroke-miterlimit:4;stroke-dasharray:none;stroke-opacity:1" d="m64.356 61.92-6.005 8.4c9.283-2.671 16.22-8.174 21.62-15.578l-9.185.764 1-10.026c-2.689 3.64-5.955 6.887-10.747 9.008l-1.31-2.398c-4.836 2.901-10.988 5.106-18.719 5.106-7.73 0-13.882-2.205-18.719-5.106l-1.309 2.398c-4.792-2.121-8.058-5.369-10.747-9.008l1 10.026-9.186-.764C7.45 62.146 14.387 67.65 23.669 70.32l-6.004-8.4c8.503 5.329 16.096 6.73 23.345 6.73 7.25 0 14.843-1.401 23.346-6.73z"/><path style="fill:none;stroke:#fec953;stroke-width:.79375;stroke-linecap:butt;stroke-linejoin:miter;stroke-miterlimit:4;stroke-dasharray:none;stroke-opacity:1" d="m61.039 54.488 3.74 7.024-.423.408m-43.374-7.432-3.74 7.024.423.408"/><path style="font-size:7.76111px;line-height:1.25;letter-spacing:.396875px;word-spacing:0;fill:#fff;stroke:#fff;stroke-width:.264583" d="m59.56 57.913-.747-1.416-1.555.85.588 1.086c.047.095.08.192.087.242zm-7.476-.603a4.402 4.402 0 0 0-1.516.203c-.651.204-1.089.465-1.312.783-.223.319-.256.625-.156.944.066.135.13.27.203.406 1.752-.547 3.325-.977 5.054-1.57-.978-.481-1.683-.744-2.273-.766zm7.745-1.906.203.407-.74.442 2.034 4.047-.454.228-1.087-2.168-1.924.965a.769.769 0 0 1-.353.346l-.203.051 2.303 1.21-.244.411-3.48-1.867.23-.454c.197.155.39.263.577.321.192.056.352.053.478-.01a.484.484 0 0 0 .254-.289.471.471 0 0 0-.024-.386l-.565-1.09c-.652.367-1.119.508-1.71.746l1.37 4.384-.478.15-.902-2.888c-.28.088-.5.295-.663.62-.165.322-.238.7-.219 1.133l-.479-.01a1.863 1.863 0 0 1-.015-.455c.014-.142.04-.261.078-.358a1.086 1.086 0 0 0-1.017-.206.97.97 0 0 0-.592.494.971.971 0 0 0-.07.768c.09.29.325.531.703.726.382.187.839.294 1.37.318l-.06.495c-.629-.03-1.173-.173-1.633-.426-.456-.255-.744-.576-.864-.961-.125-.4-.092-.784.1-1.152.197-.373.495-.622.895-.747.236-.074.476-.096.718-.066.24.026.457.099.648.219.093-.21.222-.39.386-.542.163-.156.35-.268.563-.334l-.316-1.013-5.161 1.611 1.369 4.385-.478.149-1.369-4.385c-.424.077-.846.139-1.267.21l.688 4.195c.284-.047.698.002.942.177.24.18.385.425.436.734.057.344-.046.66-.31.95a1.712 1.712 0 0 1-1.032.547c-.359.06-.747.034-1.165-.076a4.878 4.878 0 0 1-1.288-.54l.278-.506c.414.244.801.418 1.161.522.357.11.667.143.931.1.29-.049.524-.162.704-.34.18-.178.254-.37.22-.574a.617.617 0 0 0-.227-.4.528.528 0 0 0-.417-.108c-.16.026-.305.081-.434.164a.966.966 0 0 0-.31.312l-.4-.287c.103-.18.247-.33.432-.448l-.273-1.73a1.66 1.66 0 0 1-.423.417 1.285 1.285 0 0 1-.497.197 1.363 1.363 0 0 1-1.02-.215 1.258 1.258 0 0 1-.54-.856l-.297-1.794-.524.086-.074-.448c1.523-.245 2.94-.482 4.462-.731-.053-.112-.11-.246-.171-.38-.136-.435-.071-.862.194-1.284.264-.427.79-.762 1.575-1.008.7-.218 1.42-.318 2.098-.212.684.104 1.452.47 2.489.997 1.75-.657 3.323-1.628 4.88-2.49zm-13.155 7.834c.204-.034.386-.128.544-.282.16-.154.27-.347.335-.578l-.313-1.862-1.84.275.298 1.794c.036.22.149.393.34.52.19.128.401.172.636.133zm-9.672-4.008.12-.694.747.13-.12.694zM33.8 64.6a2.03 2.03 0 0 0 1.122-.129c.376-.155.7-.402.974-.739l.069-.396c-.15.092-.299.156-.449.192a.97.97 0 0 1-.404.022 1.251 1.251 0 0 1-.797-.46 1 1 0 0 1-.213-.815c.052-.298.21-.532.476-.702.27-.168.572-.224.906-.166.124.021.238.057.343.106.105.043.196.095.273.155l-.087.5a3.485 3.485 0 0 0-.34-.167 1.118 1.118 0 0 0-.276-.094.776.776 0 0 0-.53.085.51.51 0 0 0-.14.807c.12.134.278.217.472.25.105.019.23.005.377-.042.151-.045.312-.117.483-.216l.336-2.036-2.75-.312-.173 1.03a1.281 1.281 0 0 1-.41.768c-.212.19-.44.263-.684.22a.644.644 0 0 1-.237-.095c.105.608.309 1.115.613 1.522.309.407.657.645 1.046.712zm3.096-3.792-.784 4.654-.5-.087.172-.993c-.273.27-.591.467-.956.588a2.292 2.292 0 0 1-1.106.078c-.577-.1-1.077-.5-1.5-1.198-.417-.703-.67-1.56-.762-2.57l.43-.134c.038.227.108.414.211.56.108.147.23.232.364.255.114.02.22-.026.316-.138a.867.867 0 0 0 .19-.436l.174-1.064c-.713-.132-1.445-.25-2.14-.452l-.279 1.028a1.071 1.071 0 0 1-.529.675 1.002 1.002 0 0 1-.802.097.845.845 0 0 1-.154-.07 4.822 4.822 0 0 1-.209-.147c.102.425.245.845.428 1.262.19.414.419.82.686 1.22l-.384.258a9.342 9.342 0 0 1-.974-1.88 10.392 10.392 0 0 1-.55-2.087l.507-.113c.014.257.093.483.236.677.148.196.333.327.557.392a.505.505 0 0 0 .42-.059.6.6 0 0 0 .28-.367l.279-.995c-.667-.168-1.236-.405-1.995-.631l-2.185 4.24-.447-.226 2.101-4.257-1.738-.705-2.07 4.1-.447-.226.909-1.8a2.778 2.778 0 0 1-.35-.048 1.463 1.463 0 0 1-.307-.113 1.71 1.71 0 0 1-.24-.147 1.869 1.869 0 0 1-.206-.198c-.171.339-.412.568-.722.69-.31.12-.659.122-1.047.005.09.204.176.38.259.53.09.147.177.265.263.353l-.39.202a3.798 3.798 0 0 1-.647-1.175 1.292 1.292 0 0 1-.53-.463c-.112-.192-.131-.363-.056-.512a.39.39 0 0 1 .231-.206.417.417 0 0 1 .316.032.812.812 0 0 1 .32.306c.092.143.15.31.171.502.28.085.546.092.797.02.253-.075.431-.215.533-.418a.322.322 0 0 0 .028-.223c-.017-.077-.056-.13-.114-.16a1.427 1.427 0 0 0-.43-.107 1.357 1.357 0 0 1-.423-.103c-.163-.082-.3-.327-.411-.734-.105-.41-.11-.706-.017-.891a.588.588 0 0 1 .405-.314.796.796 0 0 1 .569.067l1.13.57.317-.63-2.199-1.11.205-.405c7.64 3.885 10.198 4.5 20.194 5.018l-.014.573-.901-.045-.041 1.327-1.872-.058a.146.146 0 0 0-.107.042.145.145 0 0 0-.049.104c-.005.142.09.324.286.548.196.218.361.33.498.334.106.003.256-.025.45-.085.199-.06.354-.087.465-.084.207.007.381.09.523.252a.788.788 0 0 1 .21.575c-.014.434-.175.8-.482 1.1a1.446 1.446 0 0 1-1.083.42c-.53-.016-1.041-.232-1.534-.646-.487-.42-.877-.973-1.169-1.66l.41-.245c.264.61.602 1.1 1.015 1.473.418.367.85.557 1.294.571a.938.938 0 0 0 .714-.288c.209-.201.318-.448.327-.74a.319.319 0 0 0-.07-.215c-.048-.063-.105-.095-.17-.097a1.499 1.499 0 0 0-.466.092 1.5 1.5 0 0 1-.45.084c-.258-.008-.535-.178-.833-.511-.298-.333-.443-.63-.435-.893a.631.631 0 0 1 .204-.456.63.63 0 0 1 .468-.175l1.364.042.025-.86c-1.347.008-2.667-.151-3.975-.266zM24.193 59.69c.067.034.159.06.274.079.115.018.25.03.407.035l.932-1.847-1.265-.639-.547 1.083-1.576-.796a.332.332 0 0 0-.176-.038c-.059.004-.097.024-.116.06-.057.113-.06.29-.012.53.051.234.122.375.212.42.09.046.231.08.423.104.199.02.344.054.434.1.085.043.16.097.223.163.065.062.12.128.162.2.051.1.13.197.236.29.11.095.24.18.389.256z"/><path style="font-size:5.4319px;line-height:1.25;letter-spacing:0;word-spacing:0;fill:#2e3192;stroke:#2e3192;stroke-width:.264583" d="M52.262 4.9q.276 0 .52-.148.248-.154.396-.42V2.706h-1.196q.132.165.206.35.074.181.074.357 0 .308-.243.547-.238.24-.604.303.053.276.291.457.239.18.556.18zm-1.43-2.194v-.319h3.3v.319h-.599v3.22h-.355V4.832q-.206.202-.444.313-.233.106-.472.106-.508 0-.873-.366-.36-.372-.36-.904.402 0 .64-.154.239-.16.239-.414 0-.17-.09-.351-.09-.186-.26-.356zm-.529 0v-.319h.673v.319zm-1.09.813q.19-.09.307-.228.116-.144.116-.303 0-.16-.116-.271-.112-.117-.276-.117-.174 0-.302.117-.121.111-.121.27 0 .165.106.309.105.138.286.223zm.74 2.37q-.079-.048-.185-.175-.105-.128-.238-.319-.053.016-.122.027-.068.01-.164.01-.407 0-.699-.266-.286-.27-.286-.653 0-.277.17-.51.175-.234.466-.34-.201-.144-.313-.32-.11-.175-.11-.355 0-.303.222-.521.227-.218.55-.218.307 0 .524.218.218.218.218.52 0 .203-.112.383-.11.18-.312.293.148.069.28.106.138.037.25.037.248 0 .492-.08.243-.085.46-.239v.35q-.238.144-.481.213-.244.07-.472.07-.254 0-.487-.07-.233-.069-.429-.212-.275.127-.439.313-.159.181-.159.362 0 .244.185.425.186.175.45.175.027 0 .08-.016.053-.02.132-.053 0-.207.1-.35.102-.15.25-.15.137 0 .227.107.09.101.09.25 0 .085-.058.18-.053.09-.153.17.058.128.137.234.08.107.18.192zm-5.866-3.183v-.319h3.987v.319h-.598v3.22h-.35v-2.12q-.307 0-.572.276-.264.271-.38.712l-.318-.106q.026-.17.084-.308.059-.138.127-.223-.11-.17-.28-.26-.17-.091-.355-.091-.291 0-.498.207-.206.208-.206.5 0 .319.317.632.323.308.848.5l-.143.319q-.62-.229-1.001-.627-.376-.399-.376-.824 0-.441.307-.75.313-.313.752-.313.26 0 .492.106.233.101.387.282.159-.18.37-.282.212-.106.445-.106v-.744zm-3.082 0v-.319h.599q-.09-.51-.334-.84-.238-.33-.513-.33-.207 0-.35.14-.143.132-.143.323 0 .17.074.34.074.165.207.298h-.387q-.121-.122-.185-.287-.064-.165-.064-.35 0-.325.25-.548.243-.229.598-.229.407 0 .746.42.34.42.45 1.063h.604v.319h-.604v3.22h-.35v-3.22zm-2.79 0v-.319h2.933v.319h-.566v.85h-1.446q-.068 0-.121.032-.053.032-.053.075 0 .143.106.276.105.133.28.218.111-.048.244-.075.137-.032.286-.032.397 0 .672.229.28.223.28.553 0 .18-.073.334-.074.15-.212.229l-.28-.244q.1-.059.153-.144.058-.085.058-.175 0-.181-.175-.303-.174-.122-.423-.122-.382 0-.652.175-.264.175-.264.425 0 .324.455.553.455.223 1.096.223l-.074.319q-.757 0-1.297-.32-.535-.323-.535-.775 0-.207.1-.388.106-.18.286-.287-.18-.154-.285-.33-.101-.175-.101-.34 0-.19.153-.324.16-.138.376-.138h1.096v-.494zm-3.082 0v-.319h1.552v.319h-.604v3.22h-.35v-3.22zm-2.875 0v-.319h3.018v.319h-.603v3.22h-.35V4.794q-.143.17-.338.266-.191.09-.403.09-.44 0-.752-.281-.307-.282-.307-.675 0-.399.307-.675.313-.282.752-.282.127 0 .244.038.116.031.217.106l-.18.282q-.064-.048-.133-.075-.068-.032-.148-.032-.291 0-.498.186-.206.186-.206.452 0 .244.206.425.207.175.498.175.207 0 .403-.138.195-.143.338-.393V2.706zm-.884-.324L30.072.825l.243-.213 1.409 1.77zm-2.87.324v-.319h3.897v.319h-.598v3.22h-.355v-1.7h-1.503q-.143.106-.329.106-.042 0-.084-.01-.038-.011-.059-.022l1.06 1.483-.281.18L28.663 3.7l.286-.213q.111.24.26.383.153.143.301.143.149 0 .25-.1.105-.102.105-.25v-.957zm1.679 1.17h1.265v-1.17h-1.233v.957q0 .111-.032.212z"/><path style="fill:#ed1c24;fill-opacity:1;stroke:none;stroke-width:.264583px;stroke-linecap:butt;stroke-linejoin:miter;stroke-opacity:1" d="M40.34 10.803v2.175c.377-.377.686-.342.686 0v4.837c-1.64 0-1.097-1.41-2.524-1.434-1.426-.024-9.203 6.642-9.6 7.189V6.926h24.832V23.57c-.397-.547-8.174-7.213-9.6-7.19-1.427.024-.885 1.435-2.524 1.435v-4.837c0-.342.31-.377.686 0v-2.175l-.978-1.662z"/><path style="fill:#2e3192;fill-opacity:1;stroke:none;stroke-width:.264583px;stroke-linecap:butt;stroke-linejoin:miter;stroke-opacity:1" d="M45.325 26.854v-2.418c1.216 0 1.155-2.084 1.372-4.349 0 0-.653.751-1.017.751-.319 0-.656-.51-.656-.51s-.336.51-.655.51c-.364 0-1.029-.597-1.029-.597.217 2.265.286 4.195 1.502 4.195v2.418h-3.221v-2.418c1.216 0 1.155-2.084 1.372-4.349 0 0-.653.751-1.017.751-.319 0-.656-.51-.656-.51s-.336.51-.655.51c-.364 0-1.03-.597-1.03-.597.218 2.265.287 4.195 1.503 4.195v2.418h-3.221v-2.418c1.215 0 1.155-2.084 1.372-4.349 0 0-.653.751-1.018.751-.318 0-.655-.51-.655-.51s-.337.51-.655.51c-.364 0-1.03-.597-1.03-.597.218 2.265.287 4.195 1.503 4.195v2.418h-4.588l4.89 18.2c.508 1.635 1.956 2.84 3.457 2.848 1.5.01 2.99-1.204 3.456-2.847l5.005-18.201z"/><path style="fill:#fec953;fill-opacity:1;stroke:none;stroke-width:.264583px;stroke-linecap:round;stroke-linejoin:bevel;stroke-opacity:1" d="M39.256 34.049c-1.397.039-1.776 1.16-3.226 2.611l2.003 7.46c.464 1.499 1.326 3.144 3.165 3.154 1.839.011 2.738-1.648 3.165-3.153l2.287-8.326c-2.543-.919-2.084-1.716-3.284-1.716-1.201 0-2.168 1.266-.549 2.964-1.472.324-2.163-3.033-3.56-2.994z"/><path id="a" style="fill:#fec953;fill-opacity:1;stroke:none;stroke-width:.264583px;stroke-linecap:butt;stroke-linejoin:miter;stroke-opacity:1" d="m17.001 42.585 14.702 5.226c-7.133-6.215-4.05-6.312-6.317-10.535 6.372 3.787 6.476 10.282 10.465 11.02 3.99.738 9.728 2.14 14.227 4.833 1.103.66.34 1.4-.707.914-4.98-2.318-10.186-4.527-16.837-4.762-8.188-.29-12.238-2.253-15.533-6.696zm-4.998-8.693c3.938 9.145 9.53 9.362 15.205 11.537-4.034-6.222-1.29-8-5.4-14.574-.049 2.153-1.896 4.286 1.567 11.21-3.748-3.171-8.36-5.194-11.372-8.173zm-1.152-8.094c1.725 2.815 3.83 3.95 7.167 8-.41-6.43 1.782-7.864 2.615-10.3 1.988 7.98-1.884 9.113.53 15.839-3.867-3.283-10.115-4.053-10.312-13.54zm1.022-9.721c.155 4.238 2.608 6.612 4.194 10.277.536-5.663 3.876-7.587 4.444-8.9 1.123 5.741-4.444 8.9-3.25 14.068-6.325-4.384-7.5-11.866-5.388-15.445zm3.353-7.618.547 10.706c1.422-4.689 5.663-6.092 6.967-8.36-.342 6.592-6.967 8.36-6.833 13.552-3.667-5.882-2.994-13.123-.681-15.898zm5.28-6.016c-.554 2.992-1.176 5.963-2.125 8.83 2.85-2.715 5.64-4.455 8.413-5.953-3.786 7.018-7.44 6.496-10.114 10.765-2.3-5.213.993-11.223 3.826-13.642zm-.494 6.194c.063-2.32 3.274-6.25 6.49-6.563-.734 1.823-4.25 5.484-6.49 6.563z"/><use xlink:href="#a" transform="matrix(-1 0 0 1 82.636 0)" width="100%" height="100%"/><path style="fill:#64bc46;fill-opacity:1;stroke:none;stroke-width:.264583px;stroke-linecap:butt;stroke-linejoin:miter;stroke-opacity:1" d="M40.6 42.842c-.402.064-.938.106-1.111-.294.272-.362.117-.678-.046-.993.012-.131.04-.383.116-1.011-.19-.031-.364-.074-.446-.189-.001-.182-.133-.364.054-.545.211-.263.431-.39.634-.79l-.269-.23c-.081-.28.051-.421.322-.473.36.016.673-.316 1.005-.51.362.123.692.249.829.4.112.286.287.744.478.71.263-.315.064-.556.133-.953.963-.547.797-1.32 1.297-1.545.893.636 1.417 1.942 2.076 2.953-.348 1.256-.874 3.117-1.19 4.317-.195.746-.33 1.095-.398 1.248a1.335 1.335 0 0 1-.737 0c.143-.369.144-1.186.135-1.79-.212-.33-.475.04-.684-.022 0 0-.227-.336-.573-.415-.42.135-.199.499-.597.983v3.552c-.349.056-.69.032-1.027-.037z"/></svg>